<svg
  width="600"
  height="420"
  viewBox="0 0 600 420"
  fill="none"
  xmlns="http://www.w3.org/2000/svg"
>
  <defs>
    <linearGradient id="bg" x1="0" y1="0" x2="600" y2="420">
      <stop offset="0%" stop-color="#FFF2F5"/>
      <stop offset="100%" stop-color="#F1ECFF"/>
    </linearGradient>

    <linearGradient id="album" x1="170" y1="100" x2="430" y2="320">
      <stop offset="0%" stop-color="#8A67D8"/>
      <stop offset="100%" stop-color="#5B8FDB"/>
    </linearGradient>
  </defs>

  <!-- Background -->
  <rect
    width="600"
    height="420"
    rx="50"
    fill="url(#bg)"
  />

  <!-- Decorative circles -->
  <circle cx="90" cy="95" r="28" fill="#FFD9E2"/>
  <circle cx="510" cy="95" r="24" fill="#DED3FF"/>
  <circle cx="500" cy="330" r="30" fill="#D8F2E8"/>

  <!-- Photo album -->
  <rect
    x="145"
    y="85"
    width="310"
    height="245"
    rx="28"
    fill="white"
  />

  <rect
    x="165"
    y="105"
    width="270"
    height="205"
    rx="20"
    fill="url(#album)"
  />

  <!-- Photo -->
  <rect
    x="190"
    y="130"
    width="220"
    height="145"
    rx="16"
    fill="#FFF8F4"
  />

  <!-- Mountain -->
  <path
    d="M205 245L270 175L310 218L345 185L395 245Z"
    fill="#81C5A7"
  />

  <!-- Sun -->
  <circle
    cx="350"
    cy="165"
    r="22"
    fill="#F7C96B"
  />

  <!-- Ground -->
  <path
    d="M205 245H395"
    stroke="#6BAA91"
    stroke-width="8"
    stroke-linecap="round"
  />

  <!-- Small family figures -->
  <circle cx="255" cy="195" r="13" fill="#F0B892"/>
  <path
    d="M237 235C239 210 247 204 255 204C263 204 271 210 273 235Z"
    fill="#5F8DDA"
  />

  <circle cx="315" cy="192" r="13" fill="#F3C3A1"/>
  <path
    d="M297 235C299 209 307 202 315 202C323 202 331 209 333 235Z"
    fill="#D9798B"
  />

  <!-- Camera -->
  <rect
    x="380"
    y="285"
    width="78"
    height="54"
    rx="13"
    fill="#334D72"
  />

  <rect
    x="395"
    y="278"
    width="28"
    height="12"
    rx="5"
    fill="#334D72"
  />

  <circle
    cx="419"
    cy="312"
    r="16"
    fill="#EAF4FF"
  />

  <circle
    cx="419"
    cy="312"
    r="8"
    fill="#6D63D7"
  />

  <!-- Heart -->
  <path
    d="M120 250
       C105 232 76 241 76 264
       C76 282 93 294 120 314
       C147 294 164 282 164 264
       C164 241 135 232 120 250Z"
    fill="#F28A96"
  />

  <!-- Sparkles -->
  <path
    d="M107 155L114 170L129 177L114 184L107 199L100 184L85 177L100 170Z"
    fill="#F5B64B"
  />

  <path
    d="M485 180L491 192L503 198L491 204L485 216L479 204L467 198L479 192Z"
    fill="#49B995"
  />
</svg>